<?xml version="1.0" encoding="UTF-8"?>
<svg xmlns="http://www.w3.org/2000/svg" xmlns:svg="http://www.w3.org/2000/svg" xmlns:sodipodi="http://sodipodi.sourceforge.net/DTD/sodipodi-0.dtd" xmlns:inkscape="http://www.inkscape.org/namespaces/inkscape" version="1.1" viewBox="0 0 88.8 33.5">
  <!-- Generator: Adobe Illustrator 29.7.1, SVG Export Plug-In . SVG Version: 2.1.1 Build 8)  -->
  <g id="svg1" sodipodi:docname="A2-Yacht-Manager-2-18.eps">
    <sodipodi:namedview id="namedview1" bordercolor="#000000" borderopacity="0.25" inkscape:deskcolor="#d1d1d1" inkscape:pagecheckerboard="0" inkscape:pageopacity="0.0" inkscape:showpageshadow="2" pagecolor="#ffffff">
      <inkscape:page id="page1" x="0" y="0" width="88.839996" height="33.546665" bleed="0" inkscape:label="1" margin="0"/>
    </sodipodi:namedview>
    <g id="g1" inkscape:groupmode="layer" inkscape:label="1">
      <g id="group-R5">
        <path id="path2" d="M22.4,24.7h-13.2l.5-1h13.7l-1,1" fill="#fff"/>
        <path id="path3" d="M36.4,30.6L23.6,3.1h-1.4l-4,1.3-.4.8L5.4,30.6H1.6v.9h12.2v-.9h-5.1l10.2-20.8,10.1,20.8h-5.5v.9h17.4v-.9h-4.5" fill="#fff"/>
        <path id="path4" d="M32.7,12c0-2.3,1.7-3.4,3.6-4.2,1.9-.8,2.6-1.1,2.6-2.1s-1.1-1.5-1.8-1.5c-1.4,0-2.1.7-2.2,1.9h-1.9c0-2.2,1.7-3.3,3.9-3.3s4,.8,4,3-1.3,2.2-2.6,2.8c-1.4.6-2.9.9-3.4,1.9h6v1.4h-8.2" fill="#fff"/>
        <path id="path5" d="M49.5,18.3h.9l-2.3,3v2.1h-.8v-2.1l-2.2-3h1l1.7,2.3,1.7-2.3" fill="#fff"/>
        <path id="path6" d="M52.6,19l-1,2.3h1.9l-1-2.3ZM53.8,21.9h-2.5l-.6,1.5h-.8l2.3-5.1h.9l2.3,5.1h-.9l-.6-1.5" fill="#fff"/>
        <path id="path7" d="M60,20.1c-.1-.7-.7-1.3-1.7-1.3s-2,.7-2,2.1.5,2,1.9,2,1.6-.4,1.8-1.4h.8c-.1,1.1-1.1,2.1-2.5,2.1s-2.7-.7-2.7-2.7.9-2.7,2.7-2.7,2.4.4,2.6,2h-.8" fill="#fff"/>
        <path id="path8" d="M66,21h-3.5v2.4h-.8v-5.1h.8v2h3.5v-2h.8v5.1h-.8v-2.4" fill="#fff"/>
        <path id="path9" d="M69.4,19h-1.9v-.7h4.6v.7h-1.9v4.4h-.8v-4.4" fill="#fff"/>
        <path id="path10" d="M50.9,26.1h1v5.1h-.8v-4.2h0l-2,4.2h-.7l-2-4.1h0v4.1h-.8v-5.1h1.1l2,4.2,2-4.2" fill="#fff"/>
        <path id="path11" d="M55.3,26.8l-1,2.3h1.9l-1-2.3ZM56.6,29.7h-2.5l-.6,1.5h-.8l2.3-5.1h.9l2.3,5.1h-.9l-.6-1.5" fill="#fff"/>
        <path id="path12" d="M59.6,27.1h0v4.1h-.8v-5.1h.9l3.3,4.1h0v-4.1h.8v5.1h-.9l-3.3-4.1" fill="#fff"/>
        <path id="path13" d="M67.2,26.8l-1,2.3h1.9l-1-2.3ZM68.4,29.7h-2.5l-.6,1.5h-.8l2.3-5.1h.9l2.3,5.1h-.9l-.6-1.5" fill="#fff"/>
        <path id="path14" d="M73.2,28.4h2.3v2.7h-.5v-.7c-.5.4-1,.9-2.1.9-2,0-2.7-1.5-2.7-2.6,0-2,1.3-2.8,2.7-2.8s2.2.3,2.6,1.7h-.8c-.2-.7-.8-1.1-1.7-1.1s-1.9,1-1.9,2,.9,2,2,2,1.8-.7,1.9-1.6h-1.7v-.7" fill="#fff"/>
        <path id="path15" d="M76.8,26.1h4.1v.7h-3.3v1.5h3.2v.7h-3.2v1.6h3.4v.7h-4.2v-5.1" fill="#fff"/>
        <path id="path16" d="M84.8,28.4c.7,0,.9-.4.9-.8s-.3-.8-.9-.8h-2.1v1.6h2.1ZM81.9,26.1h3.2c1,0,1.4.7,1.4,1.4s-.3,1.1-.9,1.3h0c.5,0,.7.5.7,1.1,0,.9,0,1.2.2,1.4h-.8c-.1-.1-.1-.4-.2-1,0-.9-.4-1.2-1-1.2h-2v2.2h-.8v-5.1" fill="#fff"/>
      </g>
    </g>
  </g>
</svg>