<?xml version="1.0" encoding="UTF-8"?>
<svg id="Layer_1" xmlns="http://www.w3.org/2000/svg" version="1.1" viewBox="0 0 32.5 24.6">
  <!-- Generator: Adobe Illustrator 29.7.1, SVG Export Plug-In . SVG Version: 2.1.1 Build 8)  -->
  <defs>
    <style>
      .st0 {
        fill: #fff;
      }
    </style>
  </defs>
  <g>
    <polygon class="st0" points="16.8 17.9 6.9 17.9 7.3 17.2 17.6 17.2 16.8 17.9"/>
    <polygon class="st0" points="27.3 22.3 17.7 1.6 16.6 1.6 13.6 2.6 13.4 3.1 4.1 22.3 1.2 22.3 1.2 23 10.3 23 10.3 22.3 6.5 22.3 14.1 6.7 21.7 22.3 17.6 22.3 17.6 23 30.7 23 30.7 22.3 27.3 22.3"/>
  </g>
  <path class="st0" d="M24.6,8.4c0-1.7,1.3-2.5,2.7-3.1,1.4-.6,2-.8,2-1.6s-.8-1.1-1.4-1.1c-1.1,0-1.6.6-1.7,1.4h-1.5c0-1.7,1.3-2.5,3-2.5s3,.6,3,2.3-.9,1.7-2,2.1-2.2.7-2.5,1.4h4.5v1.1h-6.1Z"/>
</svg>