<?xml version="1.0" encoding="UTF-8"?>
<svg id="Layer_1" xmlns="http://www.w3.org/2000/svg" version="1.1" viewBox="0 0 74.9 25.2">
  <!-- Generator: Adobe Illustrator 29.7.1, SVG Export Plug-In . SVG Version: 2.1.1 Build 8)  -->
  <g>
    <polygon points="16.8 18.6 6.9 18.6 7.3 17.8 17.6 17.8 16.8 18.6" fill="#233669"/>
    <polygon points="27.3 23 17.7 2.3 16.6 2.3 13.6 3.2 13.4 3.8 4.1 23 1.2 23 1.2 23.6 10.3 23.6 10.3 23 6.5 23 14.1 7.4 21.7 23 17.6 23 17.6 23.6 30.7 23.6 30.7 23 27.3 23" fill="#233669"/>
  </g>
  <path d="M24.6,9c0-1.7,1.3-2.5,2.7-3.1,1.4-.6,2-.8,2-1.6s-.8-1.1-1.4-1.1c-1.1,0-1.6.6-1.7,1.4h-1.5c0-1.7,1.3-2.5,3-2.5s3,.6,3,2.3-.9,1.7-2,2.1-2.2.7-2.5,1.4h4.5v1.1s-6.1,0-6.1,0Z" fill="#233669"/>
  <g>
    <path d="M38,11.2h.9l-2.1,2.8v2h-.7v-2l-2.1-2.8h.9l1.6,2.2,1.6-2.2h-.1Z" fill="#233669"/>
    <path d="M42.1,14.6h-2.4l-.6,1.4h-.8l2.2-4.8h.8l2.2,4.8h-.8s-.6-1.4-.6-1.4ZM40.9,11.9l-.9,2.1h1.8s-.9-2.1-.9-2.1Z" fill="#233669"/>
    <path d="M47.9,12.9c0-.7-.6-1.2-1.6-1.2s-1.9.6-1.9,2,.5,1.8,1.8,1.8,1.5-.4,1.7-1.3h.7c0,1.1-1,2-2.4,2s-2.5-.7-2.5-2.5.9-2.5,2.5-2.5,2.3.4,2.4,1.9h-.7v-.2Z" fill="#233669"/>
    <path d="M53.6,13.7h-3.3v2.3h-.7v-4.8h.7v1.9h3.3v-1.9h.7v4.8h-.7v-2.3Z" fill="#233669"/>
    <path d="M56.8,11.8h-1.8v-.6h4.4v.6h-1.8v4.2h-.7v-4.2h-.1Z" fill="#233669"/>
  </g>
  <g>
    <path d="M39.2,18.5h1v4.8h-.7v-4h0l-1.9,4h-.6l-1.9-3.9h0v3.9h-.7v-4.8h1l1.9,4,1.9-4Z" fill="#233669"/>
    <path d="M44.7,22h-2.4l-.6,1.4h-.8l2.2-4.8h.8l2.2,4.8h-.8s-.6-1.4-.6-1.4ZM43.5,19.2l-.9,2.1h1.8s-.9-2.1-.9-2.1Z" fill="#233669"/>
    <path d="M47.5,19.5h0v3.8h-.7v-4.8h.8l3.1,3.8h0v-3.8h.7v4.8h-.8l-3.1-3.8Z" fill="#233669"/>
    <path d="M55.9,22h-2.4l-.6,1.4h-.8l2.2-4.8h.8l2.2,4.8h-.8s-.6-1.4-.6-1.4ZM54.7,19.2l-.9,2.1h1.8s-.9-2.1-.9-2.1Z" fill="#233669"/>
    <path d="M60.4,20.8h2.2v2.6h-.5v-.7c-.4.4-1,.8-2,.8-1.9,0-2.5-1.4-2.5-2.5,0-1.9,1.3-2.6,2.5-2.6s2.1.3,2.4,1.6h-.8c-.2-.7-.7-1-1.6-1s-1.8.9-1.8,1.9.9,1.9,1.9,1.9,1.7-.6,1.8-1.5h-1.6v-.6h0Z" fill="#233669"/>
    <path d="M63.7,18.5h3.9v.6h-3.2v1.4h3.1v.6h-3.1v1.6h3.2v.6h-3.9s0-4.8,0-4.8Z" fill="#233669"/>
    <path d="M68.6,18.5h3c1,0,1.3.7,1.3,1.3s-.3,1-.8,1.2h0c.4,0,.7.5.7,1,0,.9,0,1.1.2,1.3h-.8c0-.1,0-.3,0-.9,0-.9-.3-1.1-.9-1.1h-1.9v2h-.7s0-4.8,0-4.8ZM71.4,20.7c.7,0,.9-.4.9-.8s-.3-.8-.9-.8h-2v1.6h2Z" fill="#233669"/>
  </g>
</svg>