<?xml version="1.0" encoding="UTF-8"?>
<svg id="Layer_1" xmlns="http://www.w3.org/2000/svg" version="1.1" viewBox="0 0 109.8 25.2">
  <!-- Generator: Adobe Illustrator 29.7.1, SVG Export Plug-In . SVG Version: 2.1.1 Build 8)  -->
  <g>
    <polygon points="16.8 18.6 6.9 18.6 7.3 17.8 17.6 17.8 16.8 18.6" fill="#fff"/>
    <polygon points="27.3 23 17.7 2.3 16.6 2.3 13.6 3.2 13.4 3.8 4.1 23 1.2 23 1.2 23.6 10.3 23.6 10.3 23 6.5 23 14.1 7.4 21.7 23 17.6 23 17.6 23.6 30.7 23.6 30.7 23 27.3 23" fill="#fff"/>
  </g>
  <path d="M24.6,9c0-1.7,1.3-2.5,2.7-3.1,1.4-.6,2-.8,2-1.6s-.8-1.1-1.4-1.1c-1.1,0-1.6.6-1.7,1.4h-1.5c0-1.7,1.3-2.5,3-2.5s3,.6,3,2.3-.9,1.7-2,2.1-2.2.7-2.5,1.4h4.5v1.1s-6.1,0-6.1,0Z" fill="#fff"/>
  <g>
    <path d="M46.8,2.4h1.5l-3.7,4.9v3.5h-1.2v-3.5l-3.7-5h1.6l2.7,3.8,2.8-3.8h0Z" fill="#fff"/>
    <path d="M54,8.4h-4.1l-1.1,2.5h-1.3l3.8-8.4h1.4l3.8,8.4h-1.4s-1.1-2.5-1.1-2.5ZM51.9,3.5l-1.6,3.7h3.2s-1.6-3.7-1.6-3.7Z" fill="#fff"/>
    <path d="M61.1,3.2c-2.6,0-3.1,1.1-3.1,3.4s.9,3.2,3.2,3.2,2.6-1,2.9-2.3h1.2c-.2,1.9-1.8,3.4-4.2,3.4s-4.4-1.2-4.4-4.4,1.5-4.4,4.4-4.4,4,.7,4.2,3.2h-1.2c-.1-1.7-.4-2.1-3-2.1Z" fill="#fff"/>
    <path d="M74.1,6.8h-5.7v4h-1.3V2.4h1.3v3.4h5.7v-3.4h1.2v8.4h-1.2s0-4,0-4Z" fill="#fff"/>
    <path d="M79.8,3.5h-3.2v-1.1h7.6v1.1h-3.2v7.3h-1.3V3.5h0Z" fill="#fff"/>
  </g>
  <g>
    <path d="M49.1,15.2h1.7v8.4h-1.2v-7h0l-3.3,7h-1.1l-3.3-6.8h0v6.8h-1.3v-8.4h1.8l3.3,7s3.4-7,3.4-7Z" fill="#fff"/>
    <path d="M58.5,21.2h-4.1l-1.1,2.5h-1.3l3.8-8.4h1.4l3.8,8.4h-1.4s-1.1-2.5-1.1-2.5ZM56.4,16.4l-1.6,3.7h3.2s-1.6-3.7-1.6-3.7Z" fill="#fff"/>
    <path d="M63.5,16.9h0v6.7h-1.3v-8.4h1.5l5.4,6.7h0v-6.7h1.2v8.4h-1.5l-5.4-6.7h.1Z" fill="#fff"/>
    <path d="M78.1,21.2h-4.1l-1.1,2.5h-1.3l3.8-8.4h1.4l3.8,8.4h-1.4s-1.1-2.5-1.1-2.5ZM76,16.4l-1.6,3.7h3.2l-1.6-3.7Z" fill="#fff"/>
    <path d="M85.9,19.1h3.9v4.5h-.9l-.2-1.2c-.6.6-1.5,1.4-3.2,1.4-3.4,0-4.4-2.4-4.4-4.3,0-3.3,2.2-4.6,4.4-4.6s3.7.6,4.2,2.9h-1.3c-.4-1.2-1.2-1.8-2.9-1.8s-3.2,1.6-3.2,3.4,1.5,3.3,3.3,3.3,3-1.1,3.1-2.6h-2.8v-1.1h0Z" fill="#fff"/>
    <path d="M91.6,15.2h6.8v1.1h-5.5v2.4h5.4v1.1h-5.4v2.7h5.6v1.1h-6.9v-8.4Z" fill="#fff"/>
    <path d="M100.4,15.2h5.2c1.7,0,2.3,1.2,2.3,2.2s-.5,1.8-1.4,2.1h0c.8.1,1.2.8,1.2,1.8,0,1.6,0,2,.4,2.3h-1.3c-.2-.2-.2-.6-.3-1.6,0-1.5-.6-2-1.6-2h-3.3v3.6h-1.3v-8.4h.1ZM105.2,19c1.2,0,1.5-.7,1.5-1.3s-.5-1.3-1.5-1.3h-3.5v2.6h3.5Z" fill="#fff"/>
  </g>
</svg>